<?xml version="1.0" encoding="UTF-8"?>
<!DOCTYPE svg PUBLIC "-//W3C//DTD SVG 1.1//EN" "http://www.w3.org/Graphics/SVG/1.1/DTD/svg11.dtd">
<svg version="1.1" xmlns="http://www.w3.org/2000/svg" xmlns:xlink="http://www.w3.org/1999/xlink" x="0" y="0" width="2048" height="1024" viewBox="0, 0, 2048, 1024">
  <defs>
    <linearGradient id="Gradient_1" gradientUnits="userSpaceOnUse" x1="3755.857" y1="1668.413" x2="4036.325" y2="1251.333" gradientTransform="matrix(0.287, 0, 0, 0.315, -50.76, -118.79)">
      <stop offset="0" stop-color="#000000" stop-opacity="0.072"/>
      <stop offset="1" stop-color="#000000" stop-opacity="0"/>
    </linearGradient>
    <linearGradient id="Gradient_2" gradientUnits="userSpaceOnUse" x1="3750.237" y1="1672.434" x2="4034.651" y2="1249.483" gradientTransform="matrix(0.287, 0, 0, 0.315, -50.76, -118.79)">
      <stop offset="0" stop-color="#000000" stop-opacity="0.072"/>
      <stop offset="1" stop-color="#000000" stop-opacity="0"/>
    </linearGradient>
    <linearGradient id="Gradient_3" gradientUnits="userSpaceOnUse" x1="3744.736" y1="1676.532" x2="4033.112" y2="1247.7" gradientTransform="matrix(0.287, 0, 0, 0.315, -50.76, -118.79)">
      <stop offset="0" stop-color="#000000" stop-opacity="0.072"/>
      <stop offset="1" stop-color="#000000" stop-opacity="0"/>
    </linearGradient>
    <linearGradient id="Gradient_4" gradientUnits="userSpaceOnUse" x1="4255.105" y1="1101.773" x2="3941.065" y2="1530.931" gradientTransform="matrix(0.283, 0, 0, 0.311, -85.252, -40.356)">
      <stop offset="0" stop-color="#DADADA"/>
      <stop offset="0.349" stop-color="#F1F1F1"/>
      <stop offset="1" stop-color="#F0F0F0"/>
    </linearGradient>
    <linearGradient id="Gradient_5" gradientUnits="userSpaceOnUse" x1="4264.42" y1="1043.429" x2="4165.109" y2="1153.839" gradientTransform="matrix(0.283, 0, 0, 0.311, -85.252, -40.356)">
      <stop offset="0" stop-color="#DADADA"/>
      <stop offset="0.349" stop-color="#F1F1F1"/>
      <stop offset="1" stop-color="#F0F0F0"/>
    </linearGradient>
    <linearGradient id="Gradient_6" gradientUnits="userSpaceOnUse" x1="4095.312" y1="1136.928" x2="3798.062" y2="1307.185" gradientTransform="matrix(0.293, 0, 0, 0.3, -85.252, -40.356)">
      <stop offset="0" stop-color="#FFFFFF"/>
      <stop offset="1" stop-color="#FFFFFF" stop-opacity="0"/>
    </linearGradient>
    <linearGradient id="Gradient_7" gradientUnits="userSpaceOnUse" x1="1628.321" y1="2248.409" x2="1529.01" y2="2358.818" gradientTransform="matrix(0.283, 0, 0, 0.311, -85.252, -40.356)">
      <stop offset="0" stop-color="#DADADA"/>
      <stop offset="0.349" stop-color="#F1F1F1"/>
      <stop offset="1" stop-color="#F0F0F0"/>
    </linearGradient>
    <linearGradient id="Gradient_8" gradientUnits="userSpaceOnUse" x1="1151.619" y1="2861.001" x2="1432.087" y2="2443.921" gradientTransform="matrix(0.287, 0, 0, 0.315, -50.76, -118.79)">
      <stop offset="0" stop-color="#000000" stop-opacity="0.072"/>
      <stop offset="1" stop-color="#000000" stop-opacity="0"/>
    </linearGradient>
    <linearGradient id="Gradient_9" gradientUnits="userSpaceOnUse" x1="1148.124" y1="2865.923" x2="1432.537" y2="2442.972" gradientTransform="matrix(0.287, 0, 0, 0.315, -50.76, -118.79)">
      <stop offset="0" stop-color="#000000" stop-opacity="0.072"/>
      <stop offset="1" stop-color="#000000" stop-opacity="0"/>
    </linearGradient>
    <linearGradient id="Gradient_10" gradientUnits="userSpaceOnUse" x1="1144.66" y1="2871.035" x2="1433.037" y2="2442.204" gradientTransform="matrix(0.287, 0, 0, 0.315, -50.76, -118.79)">
      <stop offset="0" stop-color="#000000" stop-opacity="0.072"/>
      <stop offset="1" stop-color="#000000" stop-opacity="0"/>
    </linearGradient>
    <linearGradient id="Gradient_11" gradientUnits="userSpaceOnUse" x1="1619.382" y1="2313.386" x2="1305.341" y2="2742.544" gradientTransform="matrix(0.283, 0, 0, 0.311, -85.252, -40.356)">
      <stop offset="0" stop-color="#DADADA"/>
      <stop offset="0.349" stop-color="#F1F1F1"/>
      <stop offset="1" stop-color="#F0F0F0"/>
    </linearGradient>
    <linearGradient id="Gradient_12" gradientUnits="userSpaceOnUse" x1="1549.143" y1="2391.11" x2="1251.893" y2="2561.368" gradientTransform="matrix(0.293, 0, 0, 0.3, -85.252, -40.356)">
      <stop offset="0" stop-color="#FFFFFF"/>
      <stop offset="1" stop-color="#FFFFFF" stop-opacity="0"/>
    </linearGradient>
    <radialGradient id="Gradient_13" gradientUnits="userSpaceOnUse" cx="248.254" cy="1345.425" r="44.96" fx="248.819" fy="1327.336" gradientTransform="matrix(1.32, 0, 0, 0.546, 0.178, 18.753)">
      <stop offset="0" stop-color="#000000" stop-opacity="0.298"/>
      <stop offset="1" stop-color="#000000" stop-opacity="0"/>
    </radialGradient>
    <linearGradient id="Gradient_14" gradientUnits="userSpaceOnUse" x1="342.573" y1="1058.229" x2="262.269" y2="1241.144" gradientTransform="matrix(1.177, 0, 0, 0.612, 0.178, 18.753)">
      <stop offset="0" stop-color="#000000" stop-opacity="0.298"/>
      <stop offset="1" stop-color="#000000" stop-opacity="0"/>
    </linearGradient>
    <radialGradient id="Gradient_15" gradientUnits="userSpaceOnUse" cx="254.093" cy="1308.454" r="22.402" fx="254.093" fy="1292.746" gradientTransform="matrix(1.286, 0, 0, 0.561, 0.178, 18.753)">
      <stop offset="0" stop-color="#000000" stop-opacity="0.298"/>
      <stop offset="1" stop-color="#000000" stop-opacity="0"/>
    </radialGradient>
    <radialGradient id="Gradient_16" gradientUnits="userSpaceOnUse" cx="169.038" cy="1861.783" r="13.637" fx="168.848" fy="1848.147" gradientTransform="matrix(1.936, 0, 0, 0.372, 0.178, 18.749)">
      <stop offset="0" stop-color="#FFFFFF"/>
      <stop offset="1" stop-color="#FFFFFF" stop-opacity="0"/>
    </radialGradient>
    <linearGradient id="Gradient_17" gradientUnits="userSpaceOnUse" x1="607.693" y1="309.044" x2="616.742" y2="353.353" gradientTransform="matrix(0.533, 0, 0, 1.526, -0.895, 152.48)">
      <stop offset="0" stop-color="#000000" stop-opacity="0.096"/>
      <stop offset="1" stop-color="#000000" stop-opacity="0"/>
    </linearGradient>
    <linearGradient id="Gradient_18" gradientUnits="userSpaceOnUse" x1="207.115" y1="1356.163" x2="245.92" y2="1356.163" gradientTransform="matrix(1.443, 0, 0, 0.499, 0.178, 18.753)">
      <stop offset="0" stop-color="#E7E7E7"/>
      <stop offset="1" stop-color="#A5A5A5"/>
    </linearGradient>
    <linearGradient id="Gradient_19" gradientUnits="userSpaceOnUse" x1="449.983" y1="808.96" x2="447.919" y2="769.564" gradientTransform="matrix(0.8, 0, 0, 0.901, 0.178, 18.753)">
      <stop offset="0" stop-color="#E7E7E7"/>
      <stop offset="1" stop-color="#A5A5A5"/>
    </linearGradient>
    <linearGradient id="Gradient_20" gradientUnits="userSpaceOnUse" x1="212.169" y1="1437.401" x2="226.641" y2="1438.715" gradientTransform="matrix(1.513, 0, 0, 0.476, 0.178, 18.753)">
      <stop offset="0" stop-color="#E7E7E7"/>
      <stop offset="1" stop-color="#A5A5A5"/>
    </linearGradient>
    <linearGradient id="Gradient_21" gradientUnits="userSpaceOnUse" x1="194.151" y1="1615.341" x2="194.855" y2="1565.62" gradientTransform="matrix(1.676, 0, 0, 0.43, 0.178, 18.753)">
      <stop offset="0" stop-color="#B2A269"/>
      <stop offset="1" stop-color="#6D5B18"/>
    </linearGradient>
    <linearGradient id="Gradient_22" gradientUnits="userSpaceOnUse" x1="288.963" y1="1015.366" x2="355.384" y2="1017.277" gradientTransform="matrix(1.036, 0, 0, 0.696, 0.178, 18.753)">
      <stop offset="0" stop-color="#E7E7E7"/>
      <stop offset="1" stop-color="#A5A5A5"/>
    </linearGradient>
    <linearGradient id="Gradient_23" gradientUnits="userSpaceOnUse" x1="291.749" y1="962.292" x2="318.886" y2="965.391" gradientTransform="matrix(0.967, 0, 0, 0.745, 0.178, 18.753)">
      <stop offset="0" stop-color="#000000" stop-opacity="0.298"/>
      <stop offset="1" stop-color="#000000" stop-opacity="0"/>
    </linearGradient>
    <linearGradient id="Gradient_24" gradientUnits="userSpaceOnUse" x1="554.557" y1="634.722" x2="525.738" y2="635.094" gradientTransform="matrix(0.644, 0, 0, 1.119, 0.178, 18.753)">
      <stop offset="0" stop-color="#FFFFFF"/>
      <stop offset="1" stop-color="#FFFFFF" stop-opacity="0"/>
    </linearGradient>
    <linearGradient id="Gradient_25" gradientUnits="userSpaceOnUse" x1="426.261" y1="676.765" x2="443.239" y2="676.765" gradientTransform="matrix(0.702, 0, 0, 1.026, 0.178, 18.753)">
      <stop offset="0" stop-color="#FFFFFF"/>
      <stop offset="1" stop-color="#FFFFFF" stop-opacity="0"/>
    </linearGradient>
    <linearGradient id="Gradient_26" gradientUnits="userSpaceOnUse" x1="372.999" y1="914.209" x2="373.956" y2="936.675" gradientTransform="matrix(0.97, 0, 0, 0.743, 0.178, 18.753)">
      <stop offset="0" stop-color="#FFFFFF"/>
      <stop offset="1" stop-color="#FFFFFF" stop-opacity="0"/>
    </linearGradient>
    <linearGradient id="Gradient_27" gradientUnits="userSpaceOnUse" x1="1629.557" y1="2251.629" x2="1530.246" y2="2362.039" gradientTransform="matrix(0.283, 0, 0, 0.311, -85.252, -40.356)">
      <stop offset="0" stop-color="#DADADA"/>
      <stop offset="0.349" stop-color="#F1F1F1"/>
      <stop offset="1" stop-color="#F0F0F0"/>
    </linearGradient>
    <linearGradient id="Gradient_28" gradientUnits="userSpaceOnUse" x1="596.821" y1="2204.797" x2="877.289" y2="1787.717" gradientTransform="matrix(0.287, 0, 0, 0.315, -50.76, -118.79)">
      <stop offset="0" stop-color="#000000" stop-opacity="0.072"/>
      <stop offset="1" stop-color="#000000" stop-opacity="0"/>
    </linearGradient>
    <linearGradient id="Gradient_29" gradientUnits="userSpaceOnUse" x1="593.778" y1="2209.224" x2="878.192" y2="1786.273" gradientTransform="matrix(0.287, 0, 0, 0.315, -50.76, -118.79)">
      <stop offset="0" stop-color="#000000" stop-opacity="0.072"/>
      <stop offset="1" stop-color="#000000" stop-opacity="0"/>
    </linearGradient>
    <linearGradient id="Gradient_30" gradientUnits="userSpaceOnUse" x1="590.749" y1="2213.778" x2="879.125" y2="1784.946" gradientTransform="matrix(0.287, 0, 0, 0.315, -50.76, -118.79)">
      <stop offset="0" stop-color="#000000" stop-opacity="0.072"/>
      <stop offset="1" stop-color="#000000" stop-opacity="0"/>
    </linearGradient>
    <linearGradient id="Gradient_31" gradientUnits="userSpaceOnUse" x1="1057.876" y1="1646.714" x2="743.836" y2="2075.872" gradientTransform="matrix(0.283, 0, 0, 0.311, -85.252, -40.356)">
      <stop offset="0" stop-color="#DADADA"/>
      <stop offset="0.349" stop-color="#F1F1F1"/>
      <stop offset="1" stop-color="#F0F0F0"/>
    </linearGradient>
    <linearGradient id="Gradient_32" gradientUnits="userSpaceOnUse" x1="1066.74" y1="1588.283" x2="967.429" y2="1698.692" gradientTransform="matrix(0.283, 0, 0, 0.311, -85.252, -40.356)">
      <stop offset="0" stop-color="#DADADA"/>
      <stop offset="0.349" stop-color="#F1F1F1"/>
      <stop offset="1" stop-color="#F0F0F0"/>
    </linearGradient>
    <linearGradient id="Gradient_33" gradientUnits="userSpaceOnUse" x1="1006.716" y1="1701.015" x2="709.466" y2="1871.273" gradientTransform="matrix(0.293, 0, 0, 0.3, -85.252, -40.356)">
      <stop offset="0" stop-color="#FFFFFF"/>
      <stop offset="1" stop-color="#FFFFFF" stop-opacity="0"/>
    </linearGradient>
    <linearGradient id="Gradient_34" gradientUnits="userSpaceOnUse" x1="586.553" y1="1614.791" x2="867.021" y2="1194.734" gradientTransform="matrix(0.287, 0, 0, 0.315, -50.76, -118.79)">
      <stop offset="0" stop-color="#000000" stop-opacity="0.072"/>
      <stop offset="1" stop-color="#000000" stop-opacity="0"/>
    </linearGradient>
    <linearGradient id="Gradient_35" gradientUnits="userSpaceOnUse" x1="583.518" y1="1618.792" x2="867.932" y2="1192.822" gradientTransform="matrix(0.287, 0, 0, 0.315, -50.76, -118.79)">
      <stop offset="0" stop-color="#000000" stop-opacity="0.072"/>
      <stop offset="1" stop-color="#000000" stop-opacity="0"/>
    </linearGradient>
    <linearGradient id="Gradient_36" gradientUnits="userSpaceOnUse" x1="580.498" y1="1622.862" x2="868.874" y2="1190.97" gradientTransform="matrix(0.287, 0, 0, 0.315, -50.76, -118.79)">
      <stop offset="0" stop-color="#000000" stop-opacity="0.072"/>
      <stop offset="1" stop-color="#000000" stop-opacity="0"/>
    </linearGradient>
    <linearGradient id="Gradient_37" gradientUnits="userSpaceOnUse" x1="1047.484" y1="1044.853" x2="733.444" y2="1477.074" gradientTransform="matrix(0.283, 0, 0, 0.311, -85.252, -40.356)">
      <stop offset="0" stop-color="#DADADA"/>
      <stop offset="0.349" stop-color="#F1F1F1"/>
      <stop offset="1" stop-color="#F0F0F0"/>
    </linearGradient>
    <linearGradient id="Gradient_38" gradientUnits="userSpaceOnUse" x1="996.677" y1="1078.523" x2="699.427" y2="1251.521" gradientTransform="matrix(0.293, 0, 0, 0.3, -85.252, -40.356)">
      <stop offset="0" stop-color="#FFFFFF"/>
      <stop offset="1" stop-color="#FFFFFF" stop-opacity="0"/>
    </linearGradient>
  </defs>
  <g id="Layer_1">
    <g>
      <path d="M75.958,180.642 L932.957,178.299 C941.237,178.276 947.96,182.028 947.973,186.678 L949.136,612.275 C949.149,616.926 942.447,620.714 934.167,620.737 L77.168,623.08 C68.888,623.103 62.165,619.351 62.152,614.7 L60.989,189.103 C60.976,184.453 67.678,180.664 75.958,180.642 z" fill="#F5F5F5"/>
      <path d="M75.958,180.642 L932.957,178.299 C941.237,178.276 947.96,182.028 947.973,186.678 L949.136,612.275 C949.149,616.926 942.447,620.714 934.167,620.737 L77.168,623.08 C68.888,623.103 62.165,619.351 62.152,614.7 L60.989,189.103 C60.976,184.453 67.678,180.664 75.958,180.642 z" fill-opacity="0" stroke="#000000" stroke-width="2" stroke-opacity="0.249"/>
    </g>
    <text transform="matrix(1, 0, 0, 1, 504.506, 221.142)">
      <tspan x="-95.03" y="-0.437" font-family="Arial-ItalicMT" font-size="36" fill="#000000">JoanAudit</tspan>
    </text>
    <g>
      <g>
        <path d="M1020.999,274.93 L1020.999,410.761 L1131.156,410.761 L1131.156,308.887 L1103.618,274.93 L1020.999,274.93 z" fill="url(#Gradient_1)" id="path1505"/>
        <path d="M1020.179,274.48 L1020.179,411.659 L1131.979,411.659 L1131.979,308.537 C1122.649,297.033 1113.323,285.523 1103.982,274.027 L1020.179,274.027 L1020.179,274.48 z" fill="url(#Gradient_2)" id="path1538"/>
        <path d="M1019.358,273.577 L1019.358,412.561 L1132.802,412.561 L1132.802,308.19 C1123.32,296.5 1113.84,284.807 1104.347,273.125 L1019.358,273.125 L1019.358,273.577 z" fill="url(#Gradient_3)" id="path1543"/>
        <g id="rect900">
          <path d="M1022.488,272.96 L1022.488,410.129 L1134.128,410.129 L1134.128,307.252 L1106.216,272.963 L1022.488,272.963 z" fill="url(#Gradient_4)"/>
          <path d="M1022.488,272.96 L1022.488,410.129 L1134.128,410.129 L1134.128,307.252 L1106.216,272.963 L1022.488,272.963 z" fill-opacity="0" stroke="#000000" stroke-width="0.426" stroke-opacity="0.365"/>
        </g>
        <path d="M1133.629,306.751 C1125.213,303.96 1114.307,304.356 1106.075,305.948 C1107.498,295.716 1107.673,282.892 1105.717,272.46 L1133.629,306.751 z" fill="url(#Gradient_5)" id="path906"/>
        <path d="M1022.808,283.03 L1022.304,408.747 L1131.921,408.747 L1131.983,377.67 C1129.535,378.725 1104.77,339.4 1073.594,341.092 C1042.391,342.784 1050.464,288.097 1022.81,283.024 z" fill="url(#Gradient_6)" id="path1500"/>
      </g>
      <text transform="matrix(1, 0, 0, 1, 1090.493, 428.318)">
        <tspan x="-40.513" y="5.5" font-family="Arial-ItalicMT" font-size="18" fill="#000000">Report</tspan>
      </text>
      <g>
        <g>
          <path d="M1094.643,313.351 C1094.696,311.091 1096.884,309.309 1099.53,309.372 C1102.175,309.435 1104.276,311.318 1104.222,313.579 C1104.168,315.839 1101.981,317.621 1099.335,317.558 C1096.69,317.495 1094.589,315.612 1094.643,313.351 z" fill="#FFFFFF"/>
          <path d="M1094.643,313.351 C1094.696,311.091 1096.884,309.309 1099.53,309.372 C1102.175,309.435 1104.276,311.318 1104.222,313.579 C1104.168,315.839 1101.981,317.621 1099.335,317.558 C1096.69,317.495 1094.589,315.612 1094.643,313.351 z" fill-opacity="0" stroke="#000000" stroke-width="2"/>
        </g>
        <path d="M1094.631,313.833 L1087.302,314.078" fill-opacity="0" stroke="#000000" stroke-width="2"/>
        <g>
          <path d="M1077.728,313.641 C1077.781,311.381 1079.969,309.599 1082.614,309.662 C1085.26,309.725 1087.36,311.608 1087.307,313.868 C1087.253,316.129 1085.065,317.911 1082.42,317.848 C1079.775,317.785 1077.674,315.902 1077.728,313.641 z" fill="#FFFFFF"/>
          <path d="M1077.728,313.641 C1077.781,311.381 1079.969,309.599 1082.614,309.662 C1085.26,309.725 1087.36,311.608 1087.307,313.868 C1087.253,316.129 1085.065,317.911 1082.42,317.848 C1079.775,317.785 1077.674,315.902 1077.728,313.641 z" fill-opacity="0" stroke="#000000" stroke-width="2"/>
        </g>
        <path d="M1077.716,314.123 L1070.387,314.368" fill-opacity="0" stroke="#000000" stroke-width="2"/>
        <g>
          <path d="M1060.812,313.931 C1060.866,311.671 1063.054,309.889 1065.699,309.952 C1068.344,310.015 1070.445,311.898 1070.392,314.158 C1070.338,316.419 1068.15,318.201 1065.505,318.138 C1062.86,318.075 1060.759,316.192 1060.812,313.931 z" fill="#FFFFFF"/>
          <path d="M1060.812,313.931 C1060.866,311.671 1063.054,309.889 1065.699,309.952 C1068.344,310.015 1070.445,311.898 1070.392,314.158 C1070.338,316.419 1068.15,318.201 1065.505,318.138 C1062.86,318.075 1060.759,316.192 1060.812,313.931 z" fill-opacity="0" stroke="#000000" stroke-width="2"/>
        </g>
        <path d="M1060.801,314.413 L1053.472,314.658" fill-opacity="0" stroke="#000000" stroke-width="2"/>
        <g>
          <path d="M1043.897,314.221 C1043.951,311.961 1046.139,310.179 1048.784,310.242 C1051.429,310.305 1053.53,312.188 1053.477,314.448 C1053.423,316.709 1051.235,318.491 1048.59,318.428 C1045.945,318.365 1043.844,316.482 1043.897,314.221 z" fill="#FFFFFF"/>
          <path d="M1043.897,314.221 C1043.951,311.961 1046.139,310.179 1048.784,310.242 C1051.429,310.305 1053.53,312.188 1053.477,314.448 C1053.423,316.709 1051.235,318.491 1048.59,318.428 C1045.945,318.365 1043.844,316.482 1043.897,314.221 z" fill-opacity="0" stroke="#000000" stroke-width="2"/>
        </g>
      </g>
      <g>
        <g>
          <path d="M1094.643,332.836 C1094.696,330.576 1096.884,328.794 1099.53,328.857 C1102.175,328.92 1104.276,330.803 1104.222,333.064 C1104.168,335.324 1101.981,337.106 1099.335,337.043 C1096.69,336.98 1094.589,335.097 1094.643,332.836 z" fill="#FFFFFF"/>
          <path d="M1094.643,332.836 C1094.696,330.576 1096.884,328.794 1099.53,328.857 C1102.175,328.92 1104.276,330.803 1104.222,333.064 C1104.168,335.324 1101.981,337.106 1099.335,337.043 C1096.69,336.98 1094.589,335.097 1094.643,332.836 z" fill-opacity="0" stroke="#000000" stroke-width="2"/>
        </g>
        <path d="M1094.631,333.318 L1087.302,333.563" fill-opacity="0" stroke="#000000" stroke-width="2"/>
        <g>
          <path d="M1077.728,333.126 C1077.781,330.866 1079.969,329.084 1082.614,329.147 C1085.26,329.21 1087.36,331.093 1087.307,333.354 C1087.253,335.614 1085.065,337.396 1082.42,337.333 C1079.775,337.27 1077.674,335.387 1077.728,333.126 z" fill="#FFFFFF"/>
          <path d="M1077.728,333.126 C1077.781,330.866 1079.969,329.084 1082.614,329.147 C1085.26,329.21 1087.36,331.093 1087.307,333.354 C1087.253,335.614 1085.065,337.396 1082.42,337.333 C1079.775,337.27 1077.674,335.387 1077.728,333.126 z" fill-opacity="0" stroke="#000000" stroke-width="2"/>
        </g>
        <path d="M1077.716,333.608 L1070.387,333.853" fill-opacity="0" stroke="#000000" stroke-width="2"/>
        <g>
          <path d="M1060.812,333.416 C1060.866,331.156 1063.054,329.374 1065.699,329.437 C1068.344,329.5 1070.445,331.383 1070.392,333.644 C1070.338,335.904 1068.15,337.686 1065.505,337.623 C1062.86,337.56 1060.759,335.677 1060.812,333.416 z" fill="#FFFFFF"/>
          <path d="M1060.812,333.416 C1060.866,331.156 1063.054,329.374 1065.699,329.437 C1068.344,329.5 1070.445,331.383 1070.392,333.644 C1070.338,335.904 1068.15,337.686 1065.505,337.623 C1062.86,337.56 1060.759,335.677 1060.812,333.416 z" fill-opacity="0" stroke="#000000" stroke-width="2"/>
        </g>
        <path d="M1060.801,333.898 L1053.472,334.143" fill-opacity="0" stroke="#000000" stroke-width="2"/>
        <g>
          <path d="M1043.897,333.706 C1043.951,331.446 1046.139,329.664 1048.784,329.727 C1051.429,329.79 1053.53,331.673 1053.477,333.933 C1053.423,336.194 1051.235,337.976 1048.59,337.913 C1045.945,337.85 1043.844,335.967 1043.897,333.706 z" fill="#FFFFFF"/>
          <path d="M1043.897,333.706 C1043.951,331.446 1046.139,329.664 1048.784,329.727 C1051.429,329.79 1053.53,331.673 1053.477,333.933 C1053.423,336.194 1051.235,337.976 1048.59,337.913 C1045.945,337.85 1043.844,335.967 1043.897,333.706 z" fill-opacity="0" stroke="#000000" stroke-width="2"/>
        </g>
      </g>
      <g>
        <g>
          <path d="M1094.643,351.085 C1094.696,348.824 1096.884,347.043 1099.53,347.105 C1102.175,347.168 1104.276,349.051 1104.222,351.312 C1104.168,353.572 1101.981,355.354 1099.335,355.291 C1096.69,355.229 1094.589,353.345 1094.643,351.085 z" fill="#FFFFFF"/>
          <path d="M1094.643,351.085 C1094.696,348.824 1096.884,347.043 1099.53,347.105 C1102.175,347.168 1104.276,349.051 1104.222,351.312 C1104.168,353.572 1101.981,355.354 1099.335,355.291 C1096.69,355.229 1094.589,353.345 1094.643,351.085 z" fill-opacity="0" stroke="#000000" stroke-width="2"/>
        </g>
        <path d="M1094.631,351.566 L1087.302,351.811" fill-opacity="0" stroke="#000000" stroke-width="2"/>
        <g>
          <path d="M1077.728,351.375 C1077.781,349.114 1079.969,347.333 1082.614,347.395 C1085.26,347.458 1087.36,349.341 1087.307,351.602 C1087.253,353.862 1085.065,355.644 1082.42,355.581 C1079.775,355.519 1077.674,353.635 1077.728,351.375 z" fill="#FFFFFF"/>
          <path d="M1077.728,351.375 C1077.781,349.114 1079.969,347.333 1082.614,347.395 C1085.26,347.458 1087.36,349.341 1087.307,351.602 C1087.253,353.862 1085.065,355.644 1082.42,355.581 C1079.775,355.519 1077.674,353.635 1077.728,351.375 z" fill-opacity="0" stroke="#000000" stroke-width="2"/>
        </g>
        <path d="M1077.716,351.856 L1070.387,352.101" fill-opacity="0" stroke="#000000" stroke-width="2"/>
        <g>
          <path d="M1060.812,351.665 C1060.866,349.404 1063.054,347.622 1065.699,347.685 C1068.344,347.748 1070.445,349.631 1070.392,351.892 C1070.338,354.152 1068.15,355.934 1065.505,355.871 C1062.86,355.808 1060.759,353.925 1060.812,351.665 z" fill="#FFFFFF"/>
          <path d="M1060.812,351.665 C1060.866,349.404 1063.054,347.622 1065.699,347.685 C1068.344,347.748 1070.445,349.631 1070.392,351.892 C1070.338,354.152 1068.15,355.934 1065.505,355.871 C1062.86,355.808 1060.759,353.925 1060.812,351.665 z" fill-opacity="0" stroke="#000000" stroke-width="2"/>
        </g>
        <path d="M1060.801,352.146 L1053.472,352.391" fill-opacity="0" stroke="#000000" stroke-width="2"/>
        <g>
          <path d="M1043.897,351.955 C1043.951,349.694 1046.139,347.912 1048.784,347.975 C1051.429,348.038 1053.53,349.921 1053.477,352.182 C1053.423,354.442 1051.235,356.224 1048.59,356.161 C1045.945,356.098 1043.844,354.215 1043.897,351.955 z" fill="#FFFFFF"/>
          <path d="M1043.897,351.955 C1043.951,349.694 1046.139,347.912 1048.784,347.975 C1051.429,348.038 1053.53,349.921 1053.477,352.182 C1053.423,354.442 1051.235,356.224 1048.59,356.161 C1045.945,356.098 1043.844,354.215 1043.897,351.955 z" fill-opacity="0" stroke="#000000" stroke-width="2"/>
        </g>
      </g>
      <g>
        <g>
          <path d="M1094.643,371.161 C1094.696,368.9 1096.884,367.119 1099.53,367.181 C1102.175,367.244 1104.276,369.128 1104.222,371.388 C1104.168,373.649 1101.981,375.43 1099.335,375.367 C1096.69,375.305 1094.589,373.421 1094.643,371.161 z" fill="#FFFFFF"/>
          <path d="M1094.643,371.161 C1094.696,368.9 1096.884,367.119 1099.53,367.181 C1102.175,367.244 1104.276,369.128 1104.222,371.388 C1104.168,373.649 1101.981,375.43 1099.335,375.367 C1096.69,375.305 1094.589,373.421 1094.643,371.161 z" fill-opacity="0" stroke="#000000" stroke-width="2"/>
        </g>
        <path d="M1094.631,371.642 L1087.302,371.887" fill-opacity="0" stroke="#000000" stroke-width="2"/>
        <g>
          <path d="M1077.728,371.451 C1077.781,369.19 1079.969,367.409 1082.614,367.471 C1085.26,367.534 1087.36,369.418 1087.307,371.678 C1087.253,373.939 1085.065,375.72 1082.42,375.657 C1079.775,375.595 1077.674,373.711 1077.728,371.451 z" fill="#FFFFFF"/>
          <path d="M1077.728,371.451 C1077.781,369.19 1079.969,367.409 1082.614,367.471 C1085.26,367.534 1087.36,369.418 1087.307,371.678 C1087.253,373.939 1085.065,375.72 1082.42,375.657 C1079.775,375.595 1077.674,373.711 1077.728,371.451 z" fill-opacity="0" stroke="#000000" stroke-width="2"/>
        </g>
        <path d="M1077.716,371.932 L1070.387,372.177" fill-opacity="0" stroke="#000000" stroke-width="2"/>
        <g>
          <path d="M1060.812,371.741 C1060.866,369.48 1063.054,367.699 1065.699,367.761 C1068.344,367.824 1070.445,369.707 1070.392,371.968 C1070.338,374.228 1068.15,376.01 1065.505,375.947 C1062.86,375.885 1060.759,374.001 1060.812,371.741 z" fill="#FFFFFF"/>
          <path d="M1060.812,371.741 C1060.866,369.48 1063.054,367.699 1065.699,367.761 C1068.344,367.824 1070.445,369.707 1070.392,371.968 C1070.338,374.228 1068.15,376.01 1065.505,375.947 C1062.86,375.885 1060.759,374.001 1060.812,371.741 z" fill-opacity="0" stroke="#000000" stroke-width="2"/>
        </g>
        <path d="M1060.801,372.222 L1053.472,372.467" fill-opacity="0" stroke="#000000" stroke-width="2"/>
        <g>
          <path d="M1043.897,372.031 C1043.951,369.77 1046.139,367.989 1048.784,368.051 C1051.429,368.114 1053.53,369.997 1053.477,372.258 C1053.423,374.518 1051.235,376.3 1048.59,376.237 C1045.945,376.175 1043.844,374.291 1043.897,372.031 z" fill="#FFFFFF"/>
          <path d="M1043.897,372.031 C1043.951,369.77 1046.139,367.989 1048.784,368.051 C1051.429,368.114 1053.53,369.997 1053.477,372.258 C1053.423,374.518 1051.235,376.3 1048.59,376.237 C1045.945,376.175 1043.844,374.291 1043.897,372.031 z" fill-opacity="0" stroke="#000000" stroke-width="2"/>
        </g>
      </g>
    </g>
    <g>
      <g>
        <path d="M496.303,536.971 L608.29,536.971 L608.29,580.451 L496.303,580.451 L496.303,536.971 z" fill="#FFFFFF"/>
        <path d="M496.303,536.971 L608.29,536.971 L608.29,580.451 L496.303,580.451 L496.303,536.971 z" fill-opacity="0" stroke="#000000" stroke-width="2"/>
      </g>
      <text transform="matrix(1, 0, 0, 1, 551.796, 558.211)">
        <tspan x="-32.695" y="8" font-family="ArialMT" font-size="24" fill="#000000">Joana</tspan>
      </text>
    </g>
    <g>
      <path d="M380.168,585.143 C358.063,585.143 340.143,573.309 340.143,558.711 C340.143,544.113 358.063,532.279 380.168,532.279 C402.273,532.279 420.193,544.113 420.193,558.711 C420.193,573.309 402.273,585.143 380.168,585.143 z" fill="#FFFFFF"/>
      <path d="M380.168,585.143 C358.063,585.143 340.143,573.309 340.143,558.711 C340.143,544.113 358.063,532.279 380.168,532.279 C402.273,532.279 420.193,544.113 420.193,558.711 C420.193,573.309 402.273,585.143 380.168,585.143 z" fill-opacity="0" stroke="#000000" stroke-width="2"/>
    </g>
    <g>
      <path d="M496.303,559.573 L431.215,560.003" fill-opacity="0" stroke="#000000" stroke-width="2"/>
      <path d="M431.191,556.403 L421.615,560.067 L431.239,563.603 z" fill="#000000" fill-opacity="1" stroke="#000000" stroke-width="2" stroke-opacity="1"/>
    </g>
    <text transform="matrix(1, 0, 0, 1, 379.668, 559.581)">
      <tspan x="-26.004" y="8" font-family="ArialMT" font-size="24" fill="#000000">SDG</tspan>
    </text>
    <g>
      <path d="M320.168,248.748 L892.671,248.748 C910.251,248.748 924.503,255.716 924.503,264.312 L924.503,477.314 C924.503,485.91 910.251,492.878 892.671,492.878 L320.168,492.878 C302.587,492.878 288.335,485.91 288.335,477.314 L288.335,264.312 C288.335,255.716 302.587,248.748 320.168,248.748 z" fill="#FFFFFF"/>
      <path d="M320.168,248.748 L892.671,248.748 C910.251,248.748 924.503,255.716 924.503,264.312 L924.503,477.314 C924.503,485.91 910.251,492.878 892.671,492.878 L320.168,492.878 C302.587,492.878 288.335,485.91 288.335,477.314 L288.335,264.312 C288.335,255.716 302.587,248.748 320.168,248.748 z" fill-opacity="0" stroke="#000000" stroke-width="2" stroke-opacity="0.25"/>
    </g>
    <g>
      <path d="M533.682,525.207 C529.488,493.891 509.644,472.685 502.81,468.687" fill-opacity="0" stroke="#000000" stroke-width="2"/>
      <path d="M530.09,525.446 L534.321,534.785 L537.274,524.967 z" fill="#000000" fill-opacity="1" stroke="#000000" stroke-width="2" stroke-opacity="1"/>
    </g>
    <path d="M730.496,522.473 L730.496,522.473" fill-opacity="0" stroke="#000000" stroke-width="1"/>
    <g>
      <path d="M375.191,531.971 L375.154,480.077" fill-opacity="0" stroke="#000000" stroke-width="2"/>
      <path d="M378.754,480.075 L375.147,470.477 L371.554,480.08 z" fill="#000000" fill-opacity="1" stroke="#000000" stroke-width="2" stroke-opacity="1"/>
    </g>
    <g>
      <path d="M817.797,425.669 L817.77,393.227" fill-opacity="0" stroke="#000000" stroke-width="2"/>
      <path d="M821.37,393.224 L817.763,383.627 L814.17,393.23 z" fill="#000000" fill-opacity="1" stroke="#000000" stroke-width="2" stroke-opacity="1"/>
    </g>
    <g>
      <g>
        <path d="M816.622,381.427 C781.046,381.427 752.206,364.238 752.206,343.035 C752.206,321.832 781.046,304.644 816.622,304.644 C852.198,304.644 881.038,321.832 881.038,343.035 C881.038,364.238 852.198,381.427 816.622,381.427 z" fill="#FFFFFF"/>
        <path d="M816.622,381.427 C781.046,381.427 752.206,364.238 752.206,343.035 C752.206,321.832 781.046,304.644 816.622,304.644 C852.198,304.644 881.038,321.832 881.038,343.035 C881.038,364.238 852.198,381.427 816.622,381.427 z" fill-opacity="0" stroke="#000000" stroke-width="2"/>
      </g>
      <text transform="matrix(1, 0, 0, 1, 817.674, 350.793)">
        <tspan x="-36.018" y="-9.134" font-family="ArialMT" font-size="24" fill="#000000">filtered</tspan>
        <tspan x="-30.686" y="18.866" font-family="ArialMT" font-size="24" fill="#000000">Paths</tspan>
      </text>
    </g>
    <g>
      <path d="M331.675,425.487 L426.661,425.487 C432.447,425.487 437.137,430.86 437.137,437.487 L437.137,456.687 C437.137,463.314 432.447,468.687 426.661,468.687 L331.675,468.687 C325.889,468.687 321.199,463.314 321.199,456.687 L321.199,437.487 C321.199,430.86 325.889,425.487 331.675,425.487 z" fill="#FFFFFF"/>
      <path d="M331.675,425.487 L426.661,425.487 C432.447,425.487 437.137,430.86 437.137,437.487 L437.137,456.687 C437.137,463.314 432.447,468.687 426.661,468.687 L331.675,468.687 C325.889,468.687 321.199,463.314 321.199,456.687 L321.199,437.487 C321.199,430.86 325.889,425.487 331.675,425.487 z" fill-opacity="0" stroke="#000000" stroke-width="2"/>
    </g>
    <text transform="matrix(1, 0.009, -0.009, 1, 379.668, 459.412)">
      <tspan x="-52.037" y="-6" font-family="ArialMT" font-size="24" fill="#000000">Annotator</tspan>
    </text>
    <g>
      <path d="M672.456,381.889 C636.88,381.889 608.04,364.701 608.04,343.498 C608.04,322.295 636.88,305.106 672.456,305.106 C708.031,305.106 736.871,322.295 736.871,343.498 C736.871,364.701 708.031,381.889 672.456,381.889 z" fill="#FFFFFF"/>
      <path d="M672.456,381.889 C636.88,381.889 608.04,364.701 608.04,343.498 C608.04,322.295 636.88,305.106 672.456,305.106 C708.031,305.106 736.871,322.295 736.871,343.498 C736.871,364.701 708.031,381.889 672.456,381.889 z" fill-opacity="0" stroke="#000000" stroke-width="2"/>
    </g>
    <text transform="matrix(1, 0, 0, 1, 672.76, 328.215)">
      <tspan x="-30.686" y="22" font-family="ArialMT" font-size="24" fill="#000000">Paths</tspan>
    </text>
    <g>
      <path d="M510.91,380.889 C475.334,380.889 446.494,363.701 446.494,342.498 C446.494,321.295 475.334,304.106 510.91,304.106 C546.486,304.106 575.326,321.295 575.326,342.498 C575.326,363.701 546.486,380.889 510.91,380.889 z" fill="#FFFFFF"/>
      <path d="M510.91,380.889 C475.334,380.889 446.494,363.701 446.494,342.498 C446.494,321.295 475.334,304.106 510.91,304.106 C546.486,304.106 575.326,321.295 575.326,342.498 C575.326,363.701 546.486,380.889 510.91,380.889 z" fill-opacity="0" stroke="#000000" stroke-width="2"/>
    </g>
    <text transform="matrix(1, 0, 0, 1, 511.963, 359.255)">
      <tspan x="-28.688" y="-9.134" font-family="ArialMT" font-size="24" fill="#000000">Chop</tspan>
    </text>
    <g>
      <path d="M373.943,384.106 C338.367,384.106 309.527,366.918 309.527,345.715 C309.527,324.512 338.367,307.323 373.943,307.323 C409.519,307.323 438.359,324.512 438.359,345.715 C438.359,366.918 409.519,384.106 373.943,384.106 z" fill="#FFFFFF"/>
      <path d="M373.943,384.106 C338.367,384.106 309.527,366.918 309.527,345.715 C309.527,324.512 338.367,307.323 373.943,307.323 C409.519,307.323 438.359,324.512 438.359,345.715 C438.359,366.918 409.519,384.106 373.943,384.106 z" fill-opacity="0" stroke="#000000" stroke-width="2"/>
    </g>
    <text transform="matrix(1, 0, 0, 1, 375.346, 350.472)">
      <tspan x="-53.385" y="-9.134" font-family="ArialMT" font-size="24" fill="#000000">annotated</tspan>
      <tspan x="-26.004" y="18.866" font-family="ArialMT" font-size="24" fill="#000000">SDG</tspan>
    </text>
    <g>
      <path d="M631.224,413.011 C622.769,389.876 589.477,372.606 549.697,372.606" fill-opacity="0" stroke="#000000" stroke-width="2"/>
      <path d="M627.68,413.647 L632.92,422.46 L634.767,412.375 z" fill="#000000" fill-opacity="1" stroke="#000000" stroke-width="2" stroke-opacity="1"/>
    </g>
    <g>
      <path d="M546.708,384.971 C563.104,407.58 590.763,475.477 564.02,536.971" fill-opacity="0" stroke="#000000" stroke-width="2"/>
      <path d="M549.137,382.314 L539.623,378.493 L544.278,387.628 z" fill="#000000" fill-opacity="1" stroke="#000000" stroke-width="2" stroke-opacity="1"/>
    </g>
    <path d="M562.9,725.037 L562.9,725.037" fill-opacity="0" stroke="#000000" stroke-width="2"/>
    <g>
      <path d="M494.466,414.067 C486.826,390.341 456.25,372.606 419.694,372.606" fill-opacity="0" stroke="#000000" stroke-width="2"/>
      <path d="M490.91,414.63 L495.967,423.549 L498.022,413.504 z" fill="#000000" fill-opacity="1" stroke="#000000" stroke-width="2" stroke-opacity="1"/>
    </g>
    <g>
      <path d="M373.925,425.669 L373.938,395.906" fill-opacity="0" stroke="#000000" stroke-width="2"/>
      <path d="M377.538,395.908 L373.942,386.306 L370.338,395.905 z" fill="#000000" fill-opacity="1" stroke="#000000" stroke-width="2" stroke-opacity="1"/>
    </g>
    <text transform="matrix(1, 0, 0, 1, 612.28, 271.991)">
      <tspan x="-78.314" y="4.588" font-family="Arial-ItalicMT" font-size="24" fill="#000000">SDGManager</tspan>
    </text>
    <g>
      <path d="M310.442,450.656 C269.578,456.454 277.087,492.878 223.745,492.878" fill-opacity="0" stroke="#000000" stroke-width="2"/>
      <path d="M310.678,454.248 L320.021,450.025 L310.206,447.063 z" fill="#000000" fill-opacity="1" stroke="#000000" stroke-width="2" stroke-opacity="1"/>
    </g>
    <g>
      <path d="M310.486,438.149 C265.912,428.563 277.867,363.23 219.973,363.23" fill-opacity="0" stroke="#000000" stroke-width="2"/>
      <path d="M310.128,441.732 L320.038,439.102 L310.843,434.567 z" fill="#000000" fill-opacity="1" stroke="#000000" stroke-width="2" stroke-opacity="1"/>
    </g>
    <g>
      <path d="M451.228,425.487 L546.214,425.487 C552,425.487 556.69,430.86 556.69,437.487 L556.69,456.687 C556.69,463.314 552,468.687 546.214,468.687 L451.228,468.687 C445.442,468.687 440.751,463.314 440.751,456.687 L440.751,437.487 C440.751,430.86 445.442,425.487 451.228,425.487 z" fill="#FFFFFF"/>
      <path d="M451.228,425.487 L546.214,425.487 C552,425.487 556.69,430.86 556.69,437.487 L556.69,456.687 C556.69,463.314 552,468.687 546.214,468.687 L451.228,468.687 C445.442,468.687 440.751,463.314 440.751,456.687 L440.751,437.487 C440.751,430.86 445.442,425.487 451.228,425.487 z" fill-opacity="0" stroke="#000000" stroke-width="2"/>
    </g>
    <text transform="matrix(1, 0, 0, 1, 501.06, 459.909)">
      <tspan x="-46.031" y="-6" font-family="ArialMT" font-size="24" fill="#000000">Chopper</tspan>
    </text>
    <g>
      <path d="M601.717,425.487 L737.677,425.487 C745.959,425.487 752.673,430.86 752.673,437.487 L752.673,456.687 C752.673,463.314 745.959,468.687 737.677,468.687 L601.717,468.687 C593.435,468.687 586.722,463.314 586.722,456.687 L586.722,437.487 C586.722,430.86 593.435,425.487 601.717,425.487 z" fill="#FFFFFF"/>
      <path d="M601.717,425.487 L737.677,425.487 C745.959,425.487 752.673,430.86 752.673,437.487 L752.673,456.687 C752.673,463.314 745.959,468.687 737.677,468.687 L601.717,468.687 C593.435,468.687 586.722,463.314 586.722,456.687 L586.722,437.487 C586.722,430.86 593.435,425.487 601.717,425.487 z" fill-opacity="0" stroke="#000000" stroke-width="2"/>
    </g>
    <text transform="matrix(1, 0, 0, 1, 669.197, 461.04)">
      <tspan x="-72.035" y="-6" font-family="ArialMT" font-size="24" fill="#000000">PathCollector</tspan>
    </text>
    <g>
      <path d="M671.697,425.132 L672.249,393.687" fill-opacity="0" stroke="#000000" stroke-width="2"/>
      <path d="M675.848,393.751 L672.417,384.089 L668.649,393.624 z" fill="#000000" fill-opacity="1" stroke="#000000" stroke-width="2" stroke-opacity="1"/>
    </g>
    <g>
      <path d="M786.705,425.487 L852.289,425.487 C856.284,425.487 859.522,430.86 859.522,437.487 L859.522,456.687 C859.522,463.314 856.284,468.687 852.289,468.687 L786.705,468.687 C782.71,468.687 779.471,463.314 779.471,456.687 L779.471,437.487 C779.471,430.86 782.71,425.487 786.705,425.487 z" fill="#FFFFFF"/>
      <path d="M786.705,425.487 L852.289,425.487 C856.284,425.487 859.522,430.86 859.522,437.487 L859.522,456.687 C859.522,463.314 856.284,468.687 852.289,468.687 L786.705,468.687 C782.71,468.687 779.471,463.314 779.471,456.687 L779.471,437.487 C779.471,430.86 782.71,425.487 786.705,425.487 z" fill-opacity="0" stroke="#000000" stroke-width="2"/>
    </g>
    <text transform="matrix(1, 0, 0, 1, 820.266, 446.909)">
      <tspan x="-26.666" y="8" font-family="ArialMT" font-size="24" fill="#000000">Filter</tspan>
    </text>
    <g>
      <path d="M881.038,343.035 L1008.059,342.964" fill-opacity="0" stroke="#000000" stroke-width="2"/>
      <path d="M1008.061,346.564 L1017.659,342.958 L1008.057,339.364 z" fill="#000000" fill-opacity="1" stroke="#000000" stroke-width="2" stroke-opacity="1"/>
    </g>
    <g>
      <path d="M515.23,589.201 C454.858,658.804 455.334,725.037 378.841,725.037" fill-opacity="0" stroke="#000000" stroke-width="2"/>
      <path d="M517.901,591.615 L521.667,582.079 L512.559,586.787 z" fill="#000000" fill-opacity="1" stroke="#000000" stroke-width="2" stroke-opacity="1"/>
    </g>
    <g>
      <path d="M791.655,414.067 C783.852,390.341 752.622,372.606 715.284,372.606" fill-opacity="0" stroke="#000000" stroke-width="2"/>
      <path d="M788.102,414.642 L793.188,423.544 L795.209,413.493 z" fill="#000000" fill-opacity="1" stroke="#000000" stroke-width="2" stroke-opacity="1"/>
    </g>
    <g>
      <g>
        <path d="M386.505,680.994 C378.089,678.203 367.184,678.599 358.951,680.191 C360.375,669.958 360.55,657.135 358.593,646.702 L386.505,680.994 z" fill="url(#Gradient_7)" id="path906"/>
        <g>
          <path d="M273.877,651.172 L273.877,787.004 L384.034,787.004 L384.034,685.129 L356.495,651.172 L273.877,651.172 z" fill="url(#Gradient_8)" id="path1505"/>
          <path d="M273.057,650.722 L273.057,787.901 L384.857,787.901 L384.857,684.779 C375.526,673.275 366.201,661.766 356.86,650.27 L273.057,650.27 L273.057,650.722 z" fill="url(#Gradient_9)" id="path1538"/>
          <path d="M272.236,649.82 L272.236,788.803 L385.68,788.803 L385.68,684.432 C376.197,672.742 366.717,661.049 357.225,649.367 L272.236,649.367 L272.236,649.82 z" fill="url(#Gradient_10)" id="path1543"/>
          <g id="rect900">
            <path d="M275.366,649.202 L275.366,786.372 L387.005,786.372 L387.005,683.495 L359.093,649.205 L275.366,649.205 z" fill="url(#Gradient_11)"/>
            <path d="M275.366,649.202 L275.366,786.372 L387.005,786.372 L387.005,683.495 L359.093,649.205 L275.366,649.205 z" fill-opacity="0" stroke="#000000" stroke-width="0.426" stroke-opacity="0.365"/>
          </g>
          <path d="M275.686,659.273 L275.182,784.989 L384.799,784.989 L384.86,753.912 C382.413,754.967 357.648,715.642 326.472,717.334 C295.268,719.026 303.342,664.339 275.688,659.266 z" fill="url(#Gradient_12)" id="path1500"/>
          <path d="M328.767,699.099 C309.85,699.131 300.431,706.22 300.324,709.725 C300.324,709.844 300.36,709.996 300.367,710.123 C300.367,710.052 300.324,709.996 300.324,709.924 C299.809,716.735 300.508,723.044 302.049,728.596 C294.283,732.69 289.435,738.282 289.371,743.627 C289.371,743.722 289.35,743.81 289.35,743.906 C289.265,744.439 289.209,744.973 289.216,745.499 C289.4,755.145 294.678,771.196 329.255,770.312 C361.401,769.73 367.103,754.189 367.789,745.451 C367.789,745.419 367.81,745.395 367.81,745.371 C367.909,744.686 367.902,744.121 367.944,743.507 C367.98,742.974 368.05,742.36 368.05,741.89 C368.065,739.508 366.128,736.792 363.04,734.148 C366.771,731.113 369.711,727.441 369.711,723.195 C369.711,711.159 360.369,713.931 360.369,713.931 L356.44,715.604 C356.539,713.971 356.631,712.338 356.617,710.649 C356.525,710.904 356.299,711.127 356.172,711.366 C356.263,710.976 356.32,710.601 356.285,710.275 C355.945,707.144 347.529,699.067 328.767,699.099 z M300.876,712.194 C300.953,712.385 301.003,712.569 301.095,712.76 C301.003,712.577 300.953,712.378 300.876,712.194 z M363.33,716.297 C364.56,716.424 365.704,717.3 366.595,719.435 C368.411,723.776 364.178,728.213 359.571,731.559 C357.988,730.531 356.249,729.543 354.32,728.619 C354.942,726.421 355.394,724.071 355.776,721.649 C356.723,720.359 360.136,715.962 363.33,716.297 z" fill="#000000" fill-opacity="0.04" id="path1258"/>
          <path d="M322.273,700.708 C315.122,701.871 307.172,702.898 301.801,708.952 C301.045,712.911 301.646,716.982 301.78,721.251 C302.02,724.868 305.292,730.005 300.48,731.065 C294.806,734.339 288.728,740.711 290.756,748.661 C292.474,760.681 303.957,767.006 313.815,767.802 C326.245,769.842 339.233,769.244 351.267,765.038 C360.079,761.78 367.711,752.397 366.68,741.436 C366.729,737.637 361.606,737.159 362.136,733.574 C365.492,730.268 369.626,726.174 368.291,720.502 C369.139,717.778 362.334,713.787 365.464,715.946 C369.655,719.156 368.269,726.429 364.242,729.065 C362.369,731.758 359.253,733.829 356.454,731.455 C352.285,730.133 353.225,724.597 354.977,721.379 C356.426,717.866 359.832,715.468 363.238,715.102 C360.532,713.66 357.338,718.638 355.288,715.843 C355.415,711.915 354.673,707.351 350.822,706.005 C342.321,700.206 331.884,700.326 322.273,700.708 z" fill="#000000" fill-opacity="0.04" id="path1262"/>
          <path d="M322.075,698.127 C314.21,699.449 305.031,700.493 299.703,707.933 C298.134,714.504 299.66,721.371 300.544,727.823 C296.148,731.073 290.707,734.275 289.018,740.44 C285.789,750.167 291.668,760.912 299.286,765.516 C309.561,771.737 321.757,771.721 333.149,771.291 C344.547,770.383 357.677,768.105 364.969,757.057 C368.213,751.768 370.594,744.152 368.001,738.003 C366.623,735.757 363.259,733.972 367.04,731.989 C372.389,727.265 372.234,715.524 365.259,712.863 C362.68,711.501 360.214,712.776 357.691,713.556 C358.383,710.561 357.38,708.124 355.288,706.284 C345.989,697.848 333.438,697.585 322.075,698.127 z M364.425,718.208 C368.086,722.51 362.857,728.237 359.238,729.687 C356.066,729.974 354.885,726.023 356.737,723.529 C357.712,720.303 361.259,716.846 364.425,718.208 z" fill="#000000" fill-opacity="0.04" id="path1265"/>
          <path d="M315.737,697.92 C309.405,699.282 302.416,701.465 298.558,707.734 C297.258,714.194 298.417,720.749 299.286,727.17 C292.898,731.312 285.902,738.17 287.202,747.41 C287.901,760.283 298.954,769.133 309.546,770.909 C322.86,773.872 336.823,773.06 349.988,769.587 C360.496,766.281 370.623,756.005 370.071,742.878 C370.071,739.739 368.955,736.442 366.793,734.395 C369.16,731.256 372.029,727.998 371.895,723.466 C372.665,716.201 366.326,708.952 359.79,711.501 C358.164,711.143 358.567,706.961 356.355,705.838 C346.886,696.486 333.311,696.494 321.418,696.932 C319.524,697.259 317.631,697.593 315.737,697.92 z M363.697,719.379 C366.072,723.282 360.998,728.723 357.74,727.672 C356.044,724.198 360.447,718.742 363.697,719.379 z" fill="#000000" fill-opacity="0.04" id="path1272"/>
          <path d="M274.897,751.492 C274.648,740.958 296.278,729.227 325.134,728.827 C354.287,728.427 380.804,740.958 380.754,749.355 C380.705,758.023 375.221,777.221 328.727,777.887 C282.224,778.821 275.147,761.749 274.897,751.491 z" fill="url(#Gradient_13)" id="path834"/>
          <path d="M287.931,742.205 C287.745,732.359 303.829,721.39 325.286,721.016 C346.965,720.641 366.678,732.359 366.644,740.212 C366.603,748.319 362.524,766.268 327.953,766.884 C293.378,767.761 288.115,751.81 287.931,742.205 z" fill="#FFFFFF" id="path832"/>
          <path d="M288.058,740.614 C287.872,730.766 303.956,719.796 325.413,719.422 C347.093,719.048 366.811,730.766 366.769,738.62 C366.727,746.722 362.649,764.669 328.077,765.295 C293.502,766.167 288.239,750.209 288.054,740.615 z" fill="url(#Gradient_14)" id="path866"/>
          <path d="M301.156,751.212 C301.035,745.832 311.532,739.828 325.536,739.623 C339.685,739.419 352.554,745.832 352.527,750.127 C352.506,754.556 349.841,764.373 327.278,764.714 C304.712,765.197 301.276,756.465 301.156,751.212 z" fill="url(#Gradient_15)" id="path862"/>
          <path d="M308.498,712.536 C316.985,708.796 332.285,706.221 344.217,712.204 C346.096,713.624 350.259,711.781 348.52,710.292 C344.634,706.552 333.234,703.539 326.175,703.56 C319.115,703.581 310.055,705.763 306.164,710.416 C305.055,711.828 306.855,713.592 308.498,712.536 z" fill="url(#Gradient_16)" id="path830"/>
          <path d="M323.28,701.747 C321.334,689.754 315.458,691.959 319.451,682.204 C323.252,672.913 327.147,666.811 319.857,652.007 C334.19,658.841 326.874,672.829 331.942,683.517 C337.114,694.408 328.893,693.987 323.28,701.747 z" fill="url(#Gradient_17)" id="path1936"/>
          <path d="M333.843,676.692 C333.843,676.692 336.255,672.542 333.22,668.284 C330.23,664.093 338.254,663.141 336.269,651.519 C344.328,652.975 341.631,677.399 333.843,676.692 z" fill="#000000" fill-opacity="0.044" id="path1937"/>
          <path d="M299.025,706.625 C299.129,703.137 308.563,696.077 327.483,696.048 C346.244,696.018 354.654,704.039 355,707.154 C355.339,710.269 350.647,716.995 326.539,717.731 C302.274,718.466 299.032,710.113 299.025,706.625 z" fill="url(#Gradient_18)" id="path828"/>
          <path d="M353.968,719.146 C353.968,719.146 361.748,707.803 365.31,716.279 C368.864,724.756 349.078,733.731 349.078,733.731 L345.297,739.714 C345.297,739.714 368.419,731.986 368.419,720.018 C368.419,708.051 359.084,710.794 359.084,710.794 L354.413,712.789 L353.968,719.146 z" fill="url(#Gradient_19)" id="path826"/>
          <path d="M300.13,707.535 C299.789,704.421 309.982,697.339 326.544,697.133 C343.262,696.929 352.93,703.186 353.268,706.301 C353.615,709.415 349.078,715.086 328.588,715.821 C308.253,716.555 300.47,710.649 300.13,707.535 z" fill="url(#Gradient_20)" id="path827"/>
          <path d="M302.803,711.06 C302.436,708.769 310.205,702.334 325.286,702.246 C340.478,702.033 350.23,708.239 350.597,710.532 C350.965,712.823 336.453,715.783 327.487,715.996 C318.52,716.085 303.169,713.353 302.803,711.061 z" fill="url(#Gradient_21)" id="path829"/>
          <path d="M299.03,706.829 C297.615,725.457 305.345,740.442 314.595,745.786 C323.845,751.135 332.57,750.224 340.851,744.731 C349.135,739.234 355.523,724.867 355.318,707.531 C351.113,719.685 299.396,722.046 299.03,706.826 z" fill="url(#Gradient_22)" id="path831"/>
          <path d="M301.938,753.182 C294.675,752.722 287.745,748.19 289.709,739.217 C291.673,729.993 304.68,725.298 309.943,725.505 C315.205,725.713 322.579,735.976 321.283,740.463 C319.985,744.951 309.423,753.886 301.938,753.182 z" fill="url(#Gradient_23)" id="path833"/>
          <path d="M337.077,727.808 C339.279,726.927 349.184,726.221 351.381,715.291 C352.484,725.163 349.608,729.821 348.555,732.567 C347.502,735.49 338.882,745.62 338.649,743.32 L337.077,727.808 z" fill="url(#Gradient_24)" id="path835"/>
          <path d="M302.331,727.632 C300.811,725.81 298.872,711.413 299.658,713.529 C300.287,715.644 306.262,719.317 308.463,718.641 C310.506,717.966 313.389,731.07 309.406,732.568 C305.266,734.066 303.85,729.277 302.331,727.633 z" fill="url(#Gradient_25)" id="path836"/>
        </g>
        <path d="M355.281,710.715 L355.055,713.209 C354.716,715.577 362.327,705.091 365.994,714.564 C366.355,716.802 365.973,719.639 365.973,719.639 C365.973,719.639 368.065,716.951 367.641,714.403 C365.139,705.155 356.85,709.922 355.281,710.715 z" fill="url(#Gradient_26)" id="path857"/>
      </g>
      <path d="M386.856,681.994 C378.44,679.203 367.535,679.599 359.302,681.191 C360.725,670.959 360.9,658.135 358.944,647.703 L386.856,681.994 z" fill="url(#Gradient_27)" id="path906"/>
      <text transform="matrix(1, 0, 0, 1, 351.694, 813.804)">
        <tspan x="-76.513" y="-5" font-family="Arial-ItalicMT" font-size="18" fill="#000000">Java Program</tspan>
      </text>
    </g>
    <g>
      <path d="M114.713,444.151 L114.713,579.982 L224.87,579.982 L224.87,478.108 L197.331,444.151 L114.713,444.151 z" fill="url(#Gradient_28)" id="path1505"/>
      <path d="M113.892,443.701 L113.892,580.879 L225.693,580.879 L225.693,477.758 C216.362,466.254 207.036,454.744 197.696,443.248 L113.892,443.248 L113.892,443.701 z" fill="url(#Gradient_29)" id="path1538"/>
      <path d="M113.072,442.798 L113.072,581.782 L226.516,581.782 L226.516,477.411 C217.033,465.72 207.553,454.027 198.06,442.345 L113.072,442.345 L113.072,442.798 z" fill="url(#Gradient_30)" id="path1543"/>
      <g id="rect900">
        <path d="M116.202,442.181 L116.202,579.35 L227.841,579.35 L227.841,476.473 L199.929,442.183 L116.202,442.183 z" fill="url(#Gradient_31)"/>
        <path d="M116.202,442.181 L116.202,579.35 L227.841,579.35 L227.841,476.473 L199.929,442.183 L116.202,442.183 z" fill-opacity="0" stroke="#000000" stroke-width="0.426" stroke-opacity="0.365"/>
      </g>
      <path d="M227.342,475.972 C218.926,473.181 208.021,473.577 199.788,475.169 C201.211,464.936 201.386,452.113 199.43,441.68 L227.342,475.972 z" fill="url(#Gradient_32)" id="path906"/>
      <path d="M116.521,452.251 L116.018,577.968 L225.634,577.968 L225.696,546.891 C223.249,547.945 198.483,508.62 167.307,510.313 C136.104,512.005 144.178,457.317 116.524,452.244 z" fill="url(#Gradient_33)" id="path1500"/>
      <text transform="matrix(1, 0, 0, 1, 169.794, 596.782)">
        <tspan x="-40.513" y="5.5" font-family="Arial-ItalicMT" font-size="18" fill="#000000">config.xml</tspan>
      </text>
      <text transform="matrix(1, 0, 0, 1, 170.857, 516.548)">
        <tspan x="-25.679" y="-19.5" font-family="ArialMT" font-size="14" fill="#000000">Sources</tspan>
        <tspan x="-17.117" y="-3.5" font-family="ArialMT" font-size="14" fill="#000000">Sinks</tspan>
        <tspan x="-39.676" y="12.5" font-family="ArialMT" font-size="14" fill="#000000">Declassifiers</tspan>
        <tspan x="-33.852" y="28.5" font-family="ArialMT" font-size="14" fill="#000000">Categories</tspan>
      </text>
      <path d="M111.767,257.067 L111.767,393.867 L221.924,393.867 L221.924,291.266 L194.385,257.067 L111.767,257.067 z" fill="url(#Gradient_34)" id="path1505"/>
      <path d="M110.947,256.613 L110.947,394.771 L222.747,394.771 L222.747,290.914 C213.416,279.327 204.091,267.735 194.75,256.157 L110.947,256.157 L110.947,256.613 z" fill="url(#Gradient_35)" id="path1538"/>
      <path d="M110.126,255.704 L110.126,395.68 L223.57,395.68 L223.57,290.564 C214.087,278.79 204.607,267.014 195.115,255.248 L110.126,255.248 L110.126,255.704 z" fill="url(#Gradient_36)" id="path1543"/>
      <g id="rect900">
        <path d="M113.256,255.079 L113.256,393.227 L224.895,393.227 L224.895,289.616 L196.983,255.082 L113.256,255.082 z" fill="url(#Gradient_37)"/>
        <path d="M113.256,255.079 L113.256,393.227 L224.895,393.227 L224.895,289.616 L196.983,255.082 L113.256,255.082 z" fill-opacity="0" stroke="#000000" stroke-width="0.426" stroke-opacity="0.365"/>
      </g>
      <path d="M113.576,265.225 L113.072,392.965 L222.689,392.965 L222.75,361.388 C220.303,362.46 195.538,322.502 164.362,324.221 C133.158,325.941 141.232,270.373 113.578,265.218 z" fill="url(#Gradient_38)" id="path1500"/>
      <text transform="matrix(1, 0, 0, 1, 166.848, 409.68)">
        <tspan x="-40.513" y="5.5" font-family="Arial-ItalicMT" font-size="18" fill="#000000">lattice.xml</tspan>
      </text>
      <g>
        <path d="M168.909,296.234 L203.736,329.936 L169.242,366.092 L134.415,332.39 L168.909,296.234 z" fill="#FFFFFF"/>
        <path d="M168.909,296.234 L203.736,329.936 L169.242,366.092 L134.415,332.39 L168.909,296.234 z" fill-opacity="0" stroke="#000000" stroke-width="4"/>
      </g>
    </g>
  </g>
</svg>
